<?xml version="1.0" encoding="UTF-8"?>
<svg id="Layer_1" data-name="Layer 1" xmlns="http://www.w3.org/2000/svg" viewBox="0 0 2365.99335 491.11579">
  <defs>
    <style>
      .cls-1, .cls-2 {
        fill: #180E08;
      }

      .cls-3, .cls-2 {
        font-family: OrangeVintage-Regular, 'Orange Vintage';
        font-size: 168.0209px;
      }

      .cls-4 {
        letter-spacing: -.04399em;
      }

      .cls-5 {
        letter-spacing: 0em;
      }
    </style>
  </defs>
  <path class="cls-1" d="M556.23668,319.2142l-30.89819,30.69921-51.3577-50.98711,30.4761-31.04465-10.78882-11.19356-31.28278,30.72972-51.24834-51.15718,51.40694-51.26676,31.11369,31.11697,10.83463-11.13547-30.91636-30.84801,51.64708-51.0628,31.00292,30.48916,30.74743-30.70208,51.77137,51.23327-30.80624,30.88137s9.19786,9.3591,10.53397,10.98609l31.27772-31.21091,51.11183,51.27153-51.10595,51.7338-31.0558-31.04402-11.07822,10.99028,30.8919,31.32773-51.20362,51.26857-31.07354-31.07516ZM561.08874,220.72938l10.79738,10.79125,57.83775-57.80842-41.89706-42.17478-26.87542,26.4506,11.18651,10.79087,15.40578-15.28902,20.03335,20.1427-46.48829,47.0968ZM505.04393,173.93832l19.83553-20.06571,46.79006,46.41972,10.864-10.81582-57.60367-57.96447-41.9804,42.04298,26.28378,26.69478,10.80346-10.89987-14.99277-15.41162ZM535.57835,173.58265l-10.64987-10.59981-10.94691,10.96739,10.90042,10.74395,10.69636-11.11154ZM587.4596,162.5502l-11.20625,11.19843,11.16298,11.17118,11.20625-11.19843-11.16298-11.17118ZM540.4645,178.41517l-42.26501,42.28999,11.03758,11.03147,42.26501-42.28999-11.03758-11.03147ZM603.19094,209.7361l-10.82207,11.02181,57.46239,58.00761,42.02741-42.8384-41.99813-41.98991-26.63819,26.81808,10.9061,10.80319,15.58385-15.37815,20.18789,20.24362-20.21582,20.19541-46.49343-46.88325ZM442.32309,236.21334l20.43695-19.71357,46.68948,46.46807c1.05963-1.34498,10.64706-10.93636,10.64706-10.93636l-57.72481-58.05175s-40.97426,40.83018-42.57682,42.17091l42.62614,42.5627,26.53841-26.76789-10.98234-10.93136-15.58228,15.45576-20.0718-20.25651ZM566.93209,204.95352l-10.69567-10.81226-10.81115,10.824,10.9719,11.06175,10.53493-11.07349ZM540.65941,209.66028l-11.0767,10.96808,41.91368,42.3303,11.0767-10.96808-41.91368-42.3303ZM462.25846,225.2274l-11.01469,11.00156,11.1924,11.20617,11.01469-11.00156-11.1924-11.20617ZM524.93895,225.38411l-11.02483,11.01327,11.01934,11.03131,11.02483-11.01327-11.01934-11.03131ZM587.43523,225.39892l-11.04412,11.04433,10.8358,10.836,11.04412-11.04433-10.8358-10.836ZM649.75569,225.22029l-11.18553,11.17165,11.17217,11.18646,11.18553-11.17165-11.17217-11.18646ZM551.56573,314.57147l-10.7203-10.72751-15.9574,15.29794-20.05646-20.52931,46.21287-46.33314-10.59203-10.9776-57.8865,57.6348,42.26261,42.31093,26.73721-26.67611ZM602.93343,240.92655l-42.22272,42.30034,11.18906,11.16894,42.22272-42.30034-11.18906-11.16894ZM556.18605,256.65696l-10.99251,10.9989,11.01492,11.00893,10.99251-10.9989-11.01492-11.00893ZM607.30244,299.09002l-20.51407,19.38307-46.19099-45.95214-10.87245,10.71311,57.74996,57.91636,41.96211-42.24395-26.52891-26.49522-11.09209,11.14871,15.48642,15.53006ZM524.94798,287.90276l-11.03019,11.00263,11.0023,11.03027,11.03019-11.00263-11.0023-11.03027ZM587.43372,287.91352l-11.02148,11.02168,11.01544,11.01564,11.02148-11.02168-11.01544-11.01564Z"/>
  <g>
    <text class="cls-3" transform="translate(731.25174 293.93901)"><tspan x="0" y="0">PURE </tspan><tspan class="cls-4" x="460.20654" y="0">C</tspan><tspan class="cls-5" x="564.37866" y="0">AFFEINE</tspan></text>
    <text class="cls-2" transform="translate(731.25174 293.93901)"><tspan x="0" y="0">PURE </tspan><tspan class="cls-4" x="460.20654" y="0">C</tspan><tspan class="cls-5" x="564.37866" y="0">AFFEINE</tspan></text>
  </g>
</svg>
